<svg xmlns="http://www.w3.org/2000/svg" width="512" height="128"><rect x="0" y="0" width="16" height="16" style="fill: rgb(0,0,0); stroke: black; stroke-width: 1px;"></rect><rect x="16" y="0" width="16" height="16" style="fill: rgb(0,0,0); stroke: black; stroke-width: 1px;"></rect><rect x="32" y="0" width="16" height="16" style="fill: rgb(0,0,0); stroke: black; stroke-width: 1px;"></rect><rect x="48" y="0" width="16" height="16" style="fill: rgb(0,0,0); stroke: black; stroke-width: 1px;"></rect><rect x="64" y="0" width="16" height="16" style="fill: rgb(0,0,0); stroke: black; stroke-width: 1px;"></rect><rect x="80" y="0" width="16" height="16" style="fill: rgb(0,0,0); stroke: black; stroke-width: 1px;"></rect><rect x="96" y="0" width="16" height="16" style="fill: rgb(0,0,0); stroke: black; stroke-width: 1px;"></rect><rect x="112" y="0" width="16" height="16" style="fill: rgb(0,0,0); stroke: black; stroke-width: 1px;"></rect><rect x="128" y="0" width="16" height="16" style="fill: rgb(0,0,0); stroke: black; stroke-width: 1px;"></rect><rect x="144" y="0" width="16" height="16" style="fill: rgb(0,0,0); stroke: black; stroke-width: 1px;"></rect><rect x="160" y="0" width="16" height="16" style="fill: rgb(0,0,0); stroke: black; stroke-width: 1px;"></rect><rect x="176" y="0" width="16" height="16" style="fill: rgb(0,0,0); stroke: black; stroke-width: 1px;"></rect><rect x="192" y="0" width="16" height="16" style="fill: rgb(0,0,0); stroke: black; stroke-width: 1px;"></rect><rect x="208" y="0" width="16" height="16" style="fill: rgb(0,0,0); stroke: black; stroke-width: 1px;"></rect><rect x="224" y="0" width="16" height="16" style="fill: rgb(0,0,0); stroke: black; stroke-width: 1px;"></rect><rect x="240" y="0" width="16" height="16" style="fill: rgb(0,0,0); stroke: black; stroke-width: 1px;"></rect><rect x="256" y="0" width="16" height="16" style="fill: rgb(0,0,0); stroke: black; stroke-width: 1px;"></rect><rect x="272" y="0" width="16" height="16" style="fill: rgb(0,0,0); stroke: black; stroke-width: 1px;"></rect><rect x="288" y="0" width="16" height="16" style="fill: rgb(0,0,0); stroke: black; stroke-width: 1px;"></rect><rect x="304" y="0" width="16" height="16" style="fill: rgb(0,0,0); stroke: black; stroke-width: 1px;"></rect><rect x="320" y="0" width="16" height="16" style="fill: rgb(0,0,0); stroke: black; stroke-width: 1px;"></rect><rect x="336" y="0" width="16" height="16" style="fill: rgb(0,0,0); stroke: black; stroke-width: 1px;"></rect><rect x="352" y="0" width="16" height="16" style="fill: rgb(0,0,0); stroke: black; stroke-width: 1px;"></rect><rect x="368" y="0" width="16" height="16" style="fill: rgb(0,0,0); stroke: black; stroke-width: 1px;"></rect><rect x="384" y="0" width="16" height="16" style="fill: rgb(0,0,0); stroke: black; stroke-width: 1px;"></rect><rect x="400" y="0" width="16" height="16" style="fill: rgb(0,0,0); stroke: black; stroke-width: 1px;"></rect><rect x="416" y="0" width="16" height="16" style="fill: rgb(0,0,0); stroke: black; stroke-width: 1px;"></rect><rect x="432" y="0" width="16" height="16" style="fill: rgb(0,0,0); stroke: black; stroke-width: 1px;"></rect><rect x="448" y="0" width="16" height="16" style="fill: rgb(0,0,0); stroke: black; stroke-width: 1px;"></rect><rect x="464" y="0" width="16" height="16" style="fill: rgb(0,0,0); stroke: black; stroke-width: 1px;"></rect><rect x="480" y="0" width="16" height="16" style="fill: rgb(0,0,0); stroke: black; stroke-width: 1px;"></rect><rect x="496" y="0" width="16" height="16" style="fill: rgb(0,0,0); stroke: black; stroke-width: 1px;"></rect><rect x="0" y="16" width="16" height="16" style="fill: rgb(0,0,0); stroke: black; stroke-width: 1px;"></rect><rect x="16" y="16" width="16" height="16" style="fill: rgb(0,0,0); stroke: black; stroke-width: 1px;"></rect><rect x="32" y="16" width="16" height="16" style="fill: rgb(255,0,0); stroke: black; stroke-width: 1px;"></rect><rect x="48" y="16" width="16" height="16" style="fill: rgb(0,0,0); stroke: black; stroke-width: 1px;"></rect><rect x="64" y="16" width="16" height="16" style="fill: rgb(0,0,0); stroke: black; stroke-width: 1px;"></rect><rect x="80" y="16" width="16" height="16" style="fill: rgb(255,0,0); stroke: black; stroke-width: 1px;"></rect><rect x="96" y="16" width="16" height="16" style="fill: rgb(0,0,0); stroke: black; stroke-width: 1px;"></rect><rect x="112" y="16" width="16" height="16" style="fill: rgb(0,0,0); stroke: black; stroke-width: 1px;"></rect><rect x="128" y="16" width="16" height="16" style="fill: rgb(255,0,0); stroke: black; stroke-width: 1px;"></rect><rect x="144" y="16" width="16" height="16" style="fill: rgb(0,0,0); stroke: black; stroke-width: 1px;"></rect><rect x="160" y="16" width="16" height="16" style="fill: rgb(0,0,0); stroke: black; stroke-width: 1px;"></rect><rect x="176" y="16" width="16" height="16" style="fill: rgb(0,0,0); stroke: black; stroke-width: 1px;"></rect><rect x="192" y="16" width="16" height="16" style="fill: rgb(0,0,0); stroke: black; stroke-width: 1px;"></rect><rect x="208" y="16" width="16" height="16" style="fill: rgb(255,0,0); stroke: black; stroke-width: 1px;"></rect><rect x="224" y="16" width="16" height="16" style="fill: rgb(255,0,0); stroke: black; stroke-width: 1px;"></rect><rect x="240" y="16" width="16" height="16" style="fill: rgb(0,0,0); stroke: black; stroke-width: 1px;"></rect><rect x="256" y="16" width="16" height="16" style="fill: rgb(0,0,0); stroke: black; stroke-width: 1px;"></rect><rect x="272" y="16" width="16" height="16" style="fill: rgb(255,0,0); stroke: black; stroke-width: 1px;"></rect><rect x="288" y="16" width="16" height="16" style="fill: rgb(255,0,0); stroke: black; stroke-width: 1px;"></rect><rect x="304" y="16" width="16" height="16" style="fill: rgb(0,0,0); stroke: black; stroke-width: 1px;"></rect><rect x="320" y="16" width="16" height="16" style="fill: rgb(0,0,0); stroke: black; stroke-width: 1px;"></rect><rect x="336" y="16" width="16" height="16" style="fill: rgb(255,0,0); stroke: black; stroke-width: 1px;"></rect><rect x="352" y="16" width="16" height="16" style="fill: rgb(255,0,0); stroke: black; stroke-width: 1px;"></rect><rect x="368" y="16" width="16" height="16" style="fill: rgb(255,0,0); stroke: black; stroke-width: 1px;"></rect><rect x="384" y="16" width="16" height="16" style="fill: rgb(0,0,0); stroke: black; stroke-width: 1px;"></rect><rect x="400" y="16" width="16" height="16" style="fill: rgb(255,0,0); stroke: black; stroke-width: 1px;"></rect><rect x="416" y="16" width="16" height="16" style="fill: rgb(255,0,0); stroke: black; stroke-width: 1px;"></rect><rect x="432" y="16" width="16" height="16" style="fill: rgb(0,0,0); stroke: black; stroke-width: 1px;"></rect><rect x="448" y="16" width="16" height="16" style="fill: rgb(0,0,0); stroke: black; stroke-width: 1px;"></rect><rect x="464" y="16" width="16" height="16" style="fill: rgb(0,0,0); stroke: black; stroke-width: 1px;"></rect><rect x="480" y="16" width="16" height="16" style="fill: rgb(0,0,0); stroke: black; stroke-width: 1px;"></rect><rect x="496" y="16" width="16" height="16" style="fill: rgb(0,0,0); stroke: black; stroke-width: 1px;"></rect><rect x="0" y="32" width="16" height="16" style="fill: rgb(0,0,0); stroke: black; stroke-width: 1px;"></rect><rect x="16" y="32" width="16" height="16" style="fill: rgb(0,0,0); stroke: black; stroke-width: 1px;"></rect><rect x="32" y="32" width="16" height="16" style="fill: rgb(255,0,0); stroke: black; stroke-width: 1px;"></rect><rect x="48" y="32" width="16" height="16" style="fill: rgb(255,0,0); stroke: black; stroke-width: 1px;"></rect><rect x="64" y="32" width="16" height="16" style="fill: rgb(0,0,0); stroke: black; stroke-width: 1px;"></rect><rect x="80" y="32" width="16" height="16" style="fill: rgb(255,0,0); stroke: black; stroke-width: 1px;"></rect><rect x="96" y="32" width="16" height="16" style="fill: rgb(0,0,0); stroke: black; stroke-width: 1px;"></rect><rect x="112" y="32" width="16" height="16" style="fill: rgb(255,0,0); stroke: black; stroke-width: 1px;"></rect><rect x="128" y="32" width="16" height="16" style="fill: rgb(0,0,0); stroke: black; stroke-width: 1px;"></rect><rect x="144" y="32" width="16" height="16" style="fill: rgb(255,0,0); stroke: black; stroke-width: 1px;"></rect><rect x="160" y="32" width="16" height="16" style="fill: rgb(0,0,0); stroke: black; stroke-width: 1px;"></rect><rect x="176" y="32" width="16" height="16" style="fill: rgb(0,0,0); stroke: black; stroke-width: 1px;"></rect><rect x="192" y="32" width="16" height="16" style="fill: rgb(0,0,0); stroke: black; stroke-width: 1px;"></rect><rect x="208" y="32" width="16" height="16" style="fill: rgb(255,0,0); stroke: black; stroke-width: 1px;"></rect><rect x="224" y="32" width="16" height="16" style="fill: rgb(0,0,0); stroke: black; stroke-width: 1px;"></rect><rect x="240" y="32" width="16" height="16" style="fill: rgb(255,0,0); stroke: black; stroke-width: 1px;"></rect><rect x="256" y="32" width="16" height="16" style="fill: rgb(0,0,0); stroke: black; stroke-width: 1px;"></rect><rect x="272" y="32" width="16" height="16" style="fill: rgb(255,0,0); stroke: black; stroke-width: 1px;"></rect><rect x="288" y="32" width="16" height="16" style="fill: rgb(0,0,0); stroke: black; stroke-width: 1px;"></rect><rect x="304" y="32" width="16" height="16" style="fill: rgb(255,0,0); stroke: black; stroke-width: 1px;"></rect><rect x="320" y="32" width="16" height="16" style="fill: rgb(0,0,0); stroke: black; stroke-width: 1px;"></rect><rect x="336" y="32" width="16" height="16" style="fill: rgb(0,0,0); stroke: black; stroke-width: 1px;"></rect><rect x="352" y="32" width="16" height="16" style="fill: rgb(255,0,0); stroke: black; stroke-width: 1px;"></rect><rect x="368" y="32" width="16" height="16" style="fill: rgb(0,0,0); stroke: black; stroke-width: 1px;"></rect><rect x="384" y="32" width="16" height="16" style="fill: rgb(0,0,0); stroke: black; stroke-width: 1px;"></rect><rect x="400" y="32" width="16" height="16" style="fill: rgb(255,0,0); stroke: black; stroke-width: 1px;"></rect><rect x="416" y="32" width="16" height="16" style="fill: rgb(0,0,0); stroke: black; stroke-width: 1px;"></rect><rect x="432" y="32" width="16" height="16" style="fill: rgb(255,0,0); stroke: black; stroke-width: 1px;"></rect><rect x="448" y="32" width="16" height="16" style="fill: rgb(0,0,0); stroke: black; stroke-width: 1px;"></rect><rect x="464" y="32" width="16" height="16" style="fill: rgb(0,0,0); stroke: black; stroke-width: 1px;"></rect><rect x="480" y="32" width="16" height="16" style="fill: rgb(0,0,0); stroke: black; stroke-width: 1px;"></rect><rect x="496" y="32" width="16" height="16" style="fill: rgb(0,0,0); stroke: black; stroke-width: 1px;"></rect><rect x="0" y="48" width="16" height="16" style="fill: rgb(0,0,0); stroke: black; stroke-width: 1px;"></rect><rect x="16" y="48" width="16" height="16" style="fill: rgb(0,0,0); stroke: black; stroke-width: 1px;"></rect><rect x="32" y="48" width="16" height="16" style="fill: rgb(255,0,0); stroke: black; stroke-width: 1px;"></rect><rect x="48" y="48" width="16" height="16" style="fill: rgb(0,0,0); stroke: black; stroke-width: 1px;"></rect><rect x="64" y="48" width="16" height="16" style="fill: rgb(255,0,0); stroke: black; stroke-width: 1px;"></rect><rect x="80" y="48" width="16" height="16" style="fill: rgb(255,0,0); stroke: black; stroke-width: 1px;"></rect><rect x="96" y="48" width="16" height="16" style="fill: rgb(0,0,0); stroke: black; stroke-width: 1px;"></rect><rect x="112" y="48" width="16" height="16" style="fill: rgb(255,0,0); stroke: black; stroke-width: 1px;"></rect><rect x="128" y="48" width="16" height="16" style="fill: rgb(0,0,0); stroke: black; stroke-width: 1px;"></rect><rect x="144" y="48" width="16" height="16" style="fill: rgb(255,0,0); stroke: black; stroke-width: 1px;"></rect><rect x="160" y="48" width="16" height="16" style="fill: rgb(0,0,0); stroke: black; stroke-width: 1px;"></rect><rect x="176" y="48" width="16" height="16" style="fill: rgb(0,0,0); stroke: black; stroke-width: 1px;"></rect><rect x="192" y="48" width="16" height="16" style="fill: rgb(0,0,0); stroke: black; stroke-width: 1px;"></rect><rect x="208" y="48" width="16" height="16" style="fill: rgb(255,0,0); stroke: black; stroke-width: 1px;"></rect><rect x="224" y="48" width="16" height="16" style="fill: rgb(0,0,0); stroke: black; stroke-width: 1px;"></rect><rect x="240" y="48" width="16" height="16" style="fill: rgb(255,0,0); stroke: black; stroke-width: 1px;"></rect><rect x="256" y="48" width="16" height="16" style="fill: rgb(0,0,0); stroke: black; stroke-width: 1px;"></rect><rect x="272" y="48" width="16" height="16" style="fill: rgb(255,0,0); stroke: black; stroke-width: 1px;"></rect><rect x="288" y="48" width="16" height="16" style="fill: rgb(255,0,0); stroke: black; stroke-width: 1px;"></rect><rect x="304" y="48" width="16" height="16" style="fill: rgb(255,0,0); stroke: black; stroke-width: 1px;"></rect><rect x="320" y="48" width="16" height="16" style="fill: rgb(0,0,0); stroke: black; stroke-width: 1px;"></rect><rect x="336" y="48" width="16" height="16" style="fill: rgb(0,0,0); stroke: black; stroke-width: 1px;"></rect><rect x="352" y="48" width="16" height="16" style="fill: rgb(255,0,0); stroke: black; stroke-width: 1px;"></rect><rect x="368" y="48" width="16" height="16" style="fill: rgb(0,0,0); stroke: black; stroke-width: 1px;"></rect><rect x="384" y="48" width="16" height="16" style="fill: rgb(0,0,0); stroke: black; stroke-width: 1px;"></rect><rect x="400" y="48" width="16" height="16" style="fill: rgb(255,0,0); stroke: black; stroke-width: 1px;"></rect><rect x="416" y="48" width="16" height="16" style="fill: rgb(255,0,0); stroke: black; stroke-width: 1px;"></rect><rect x="432" y="48" width="16" height="16" style="fill: rgb(255,0,0); stroke: black; stroke-width: 1px;"></rect><rect x="448" y="48" width="16" height="16" style="fill: rgb(0,0,0); stroke: black; stroke-width: 1px;"></rect><rect x="464" y="48" width="16" height="16" style="fill: rgb(0,0,0); stroke: black; stroke-width: 1px;"></rect><rect x="480" y="48" width="16" height="16" style="fill: rgb(0,0,0); stroke: black; stroke-width: 1px;"></rect><rect x="496" y="48" width="16" height="16" style="fill: rgb(0,0,0); stroke: black; stroke-width: 1px;"></rect><rect x="0" y="64" width="16" height="16" style="fill: rgb(0,0,0); stroke: black; stroke-width: 1px;"></rect><rect x="16" y="64" width="16" height="16" style="fill: rgb(0,0,0); stroke: black; stroke-width: 1px;"></rect><rect x="32" y="64" width="16" height="16" style="fill: rgb(255,0,0); stroke: black; stroke-width: 1px;"></rect><rect x="48" y="64" width="16" height="16" style="fill: rgb(0,0,0); stroke: black; stroke-width: 1px;"></rect><rect x="64" y="64" width="16" height="16" style="fill: rgb(0,0,0); stroke: black; stroke-width: 1px;"></rect><rect x="80" y="64" width="16" height="16" style="fill: rgb(255,0,0); stroke: black; stroke-width: 1px;"></rect><rect x="96" y="64" width="16" height="16" style="fill: rgb(0,0,0); stroke: black; stroke-width: 1px;"></rect><rect x="112" y="64" width="16" height="16" style="fill: rgb(255,0,0); stroke: black; stroke-width: 1px;"></rect><rect x="128" y="64" width="16" height="16" style="fill: rgb(0,0,0); stroke: black; stroke-width: 1px;"></rect><rect x="144" y="64" width="16" height="16" style="fill: rgb(255,0,0); stroke: black; stroke-width: 1px;"></rect><rect x="160" y="64" width="16" height="16" style="fill: rgb(0,0,0); stroke: black; stroke-width: 1px;"></rect><rect x="176" y="64" width="16" height="16" style="fill: rgb(0,0,0); stroke: black; stroke-width: 1px;"></rect><rect x="192" y="64" width="16" height="16" style="fill: rgb(0,0,0); stroke: black; stroke-width: 1px;"></rect><rect x="208" y="64" width="16" height="16" style="fill: rgb(255,0,0); stroke: black; stroke-width: 1px;"></rect><rect x="224" y="64" width="16" height="16" style="fill: rgb(0,0,0); stroke: black; stroke-width: 1px;"></rect><rect x="240" y="64" width="16" height="16" style="fill: rgb(255,0,0); stroke: black; stroke-width: 1px;"></rect><rect x="256" y="64" width="16" height="16" style="fill: rgb(0,0,0); stroke: black; stroke-width: 1px;"></rect><rect x="272" y="64" width="16" height="16" style="fill: rgb(255,0,0); stroke: black; stroke-width: 1px;"></rect><rect x="288" y="64" width="16" height="16" style="fill: rgb(0,0,0); stroke: black; stroke-width: 1px;"></rect><rect x="304" y="64" width="16" height="16" style="fill: rgb(255,0,0); stroke: black; stroke-width: 1px;"></rect><rect x="320" y="64" width="16" height="16" style="fill: rgb(0,0,0); stroke: black; stroke-width: 1px;"></rect><rect x="336" y="64" width="16" height="16" style="fill: rgb(0,0,0); stroke: black; stroke-width: 1px;"></rect><rect x="352" y="64" width="16" height="16" style="fill: rgb(255,0,0); stroke: black; stroke-width: 1px;"></rect><rect x="368" y="64" width="16" height="16" style="fill: rgb(0,0,0); stroke: black; stroke-width: 1px;"></rect><rect x="384" y="64" width="16" height="16" style="fill: rgb(0,0,0); stroke: black; stroke-width: 1px;"></rect><rect x="400" y="64" width="16" height="16" style="fill: rgb(255,0,0); stroke: black; stroke-width: 1px;"></rect><rect x="416" y="64" width="16" height="16" style="fill: rgb(0,0,0); stroke: black; stroke-width: 1px;"></rect><rect x="432" y="64" width="16" height="16" style="fill: rgb(255,0,0); stroke: black; stroke-width: 1px;"></rect><rect x="448" y="64" width="16" height="16" style="fill: rgb(0,0,0); stroke: black; stroke-width: 1px;"></rect><rect x="464" y="64" width="16" height="16" style="fill: rgb(0,0,0); stroke: black; stroke-width: 1px;"></rect><rect x="480" y="64" width="16" height="16" style="fill: rgb(0,0,0); stroke: black; stroke-width: 1px;"></rect><rect x="496" y="64" width="16" height="16" style="fill: rgb(0,0,0); stroke: black; stroke-width: 1px;"></rect><rect x="0" y="80" width="16" height="16" style="fill: rgb(0,0,0); stroke: black; stroke-width: 1px;"></rect><rect x="16" y="80" width="16" height="16" style="fill: rgb(0,0,0); stroke: black; stroke-width: 1px;"></rect><rect x="32" y="80" width="16" height="16" style="fill: rgb(255,0,0); stroke: black; stroke-width: 1px;"></rect><rect x="48" y="80" width="16" height="16" style="fill: rgb(0,0,0); stroke: black; stroke-width: 1px;"></rect><rect x="64" y="80" width="16" height="16" style="fill: rgb(0,0,0); stroke: black; stroke-width: 1px;"></rect><rect x="80" y="80" width="16" height="16" style="fill: rgb(255,0,0); stroke: black; stroke-width: 1px;"></rect><rect x="96" y="80" width="16" height="16" style="fill: rgb(0,0,0); stroke: black; stroke-width: 1px;"></rect><rect x="112" y="80" width="16" height="16" style="fill: rgb(0,0,0); stroke: black; stroke-width: 1px;"></rect><rect x="128" y="80" width="16" height="16" style="fill: rgb(255,0,0); stroke: black; stroke-width: 1px;"></rect><rect x="144" y="80" width="16" height="16" style="fill: rgb(0,0,0); stroke: black; stroke-width: 1px;"></rect><rect x="160" y="80" width="16" height="16" style="fill: rgb(0,0,0); stroke: black; stroke-width: 1px;"></rect><rect x="176" y="80" width="16" height="16" style="fill: rgb(0,0,0); stroke: black; stroke-width: 1px;"></rect><rect x="192" y="80" width="16" height="16" style="fill: rgb(0,0,0); stroke: black; stroke-width: 1px;"></rect><rect x="208" y="80" width="16" height="16" style="fill: rgb(255,0,0); stroke: black; stroke-width: 1px;"></rect><rect x="224" y="80" width="16" height="16" style="fill: rgb(255,0,0); stroke: black; stroke-width: 1px;"></rect><rect x="240" y="80" width="16" height="16" style="fill: rgb(0,0,0); stroke: black; stroke-width: 1px;"></rect><rect x="256" y="80" width="16" height="16" style="fill: rgb(0,0,0); stroke: black; stroke-width: 1px;"></rect><rect x="272" y="80" width="16" height="16" style="fill: rgb(255,0,0); stroke: black; stroke-width: 1px;"></rect><rect x="288" y="80" width="16" height="16" style="fill: rgb(0,0,0); stroke: black; stroke-width: 1px;"></rect><rect x="304" y="80" width="16" height="16" style="fill: rgb(255,0,0); stroke: black; stroke-width: 1px;"></rect><rect x="320" y="80" width="16" height="16" style="fill: rgb(0,0,0); stroke: black; stroke-width: 1px;"></rect><rect x="336" y="80" width="16" height="16" style="fill: rgb(0,0,0); stroke: black; stroke-width: 1px;"></rect><rect x="352" y="80" width="16" height="16" style="fill: rgb(255,0,0); stroke: black; stroke-width: 1px;"></rect><rect x="368" y="80" width="16" height="16" style="fill: rgb(0,0,0); stroke: black; stroke-width: 1px;"></rect><rect x="384" y="80" width="16" height="16" style="fill: rgb(0,0,0); stroke: black; stroke-width: 1px;"></rect><rect x="400" y="80" width="16" height="16" style="fill: rgb(255,0,0); stroke: black; stroke-width: 1px;"></rect><rect x="416" y="80" width="16" height="16" style="fill: rgb(0,0,0); stroke: black; stroke-width: 1px;"></rect><rect x="432" y="80" width="16" height="16" style="fill: rgb(255,0,0); stroke: black; stroke-width: 1px;"></rect><rect x="448" y="80" width="16" height="16" style="fill: rgb(0,0,0); stroke: black; stroke-width: 1px;"></rect><rect x="464" y="80" width="16" height="16" style="fill: rgb(0,0,0); stroke: black; stroke-width: 1px;"></rect><rect x="480" y="80" width="16" height="16" style="fill: rgb(0,0,0); stroke: black; stroke-width: 1px;"></rect><rect x="496" y="80" width="16" height="16" style="fill: rgb(0,0,0); stroke: black; stroke-width: 1px;"></rect><rect x="0" y="96" width="16" height="16" style="fill: rgb(0,0,0); stroke: black; stroke-width: 1px;"></rect><rect x="16" y="96" width="16" height="16" style="fill: rgb(0,0,0); stroke: black; stroke-width: 1px;"></rect><rect x="32" y="96" width="16" height="16" style="fill: rgb(0,0,0); stroke: black; stroke-width: 1px;"></rect><rect x="48" y="96" width="16" height="16" style="fill: rgb(0,0,0); stroke: black; stroke-width: 1px;"></rect><rect x="64" y="96" width="16" height="16" style="fill: rgb(0,0,0); stroke: black; stroke-width: 1px;"></rect><rect x="80" y="96" width="16" height="16" style="fill: rgb(0,0,0); stroke: black; stroke-width: 1px;"></rect><rect x="96" y="96" width="16" height="16" style="fill: rgb(0,0,0); stroke: black; stroke-width: 1px;"></rect><rect x="112" y="96" width="16" height="16" style="fill: rgb(0,0,0); stroke: black; stroke-width: 1px;"></rect><rect x="128" y="96" width="16" height="16" style="fill: rgb(0,0,0); stroke: black; stroke-width: 1px;"></rect><rect x="144" y="96" width="16" height="16" style="fill: rgb(0,0,0); stroke: black; stroke-width: 1px;"></rect><rect x="160" y="96" width="16" height="16" style="fill: rgb(0,0,0); stroke: black; stroke-width: 1px;"></rect><rect x="176" y="96" width="16" height="16" style="fill: rgb(0,0,0); stroke: black; stroke-width: 1px;"></rect><rect x="192" y="96" width="16" height="16" style="fill: rgb(0,0,0); stroke: black; stroke-width: 1px;"></rect><rect x="208" y="96" width="16" height="16" style="fill: rgb(0,0,0); stroke: black; stroke-width: 1px;"></rect><rect x="224" y="96" width="16" height="16" style="fill: rgb(0,0,0); stroke: black; stroke-width: 1px;"></rect><rect x="240" y="96" width="16" height="16" style="fill: rgb(0,0,0); stroke: black; stroke-width: 1px;"></rect><rect x="256" y="96" width="16" height="16" style="fill: rgb(0,0,0); stroke: black; stroke-width: 1px;"></rect><rect x="272" y="96" width="16" height="16" style="fill: rgb(0,0,0); stroke: black; stroke-width: 1px;"></rect><rect x="288" y="96" width="16" height="16" style="fill: rgb(0,0,0); stroke: black; stroke-width: 1px;"></rect><rect x="304" y="96" width="16" height="16" style="fill: rgb(0,0,0); stroke: black; stroke-width: 1px;"></rect><rect x="320" y="96" width="16" height="16" style="fill: rgb(0,0,0); stroke: black; stroke-width: 1px;"></rect><rect x="336" y="96" width="16" height="16" style="fill: rgb(0,0,0); stroke: black; stroke-width: 1px;"></rect><rect x="352" y="96" width="16" height="16" style="fill: rgb(0,0,0); stroke: black; stroke-width: 1px;"></rect><rect x="368" y="96" width="16" height="16" style="fill: rgb(0,0,0); stroke: black; stroke-width: 1px;"></rect><rect x="384" y="96" width="16" height="16" style="fill: rgb(0,0,0); stroke: black; stroke-width: 1px;"></rect><rect x="400" y="96" width="16" height="16" style="fill: rgb(0,0,0); stroke: black; stroke-width: 1px;"></rect><rect x="416" y="96" width="16" height="16" style="fill: rgb(0,0,0); stroke: black; stroke-width: 1px;"></rect><rect x="432" y="96" width="16" height="16" style="fill: rgb(0,0,0); stroke: black; stroke-width: 1px;"></rect><rect x="448" y="96" width="16" height="16" style="fill: rgb(0,0,0); stroke: black; stroke-width: 1px;"></rect><rect x="464" y="96" width="16" height="16" style="fill: rgb(0,0,0); stroke: black; stroke-width: 1px;"></rect><rect x="480" y="96" width="16" height="16" style="fill: rgb(0,0,0); stroke: black; stroke-width: 1px;"></rect><rect x="496" y="96" width="16" height="16" style="fill: rgb(0,0,0); stroke: black; stroke-width: 1px;"></rect><rect x="0" y="112" width="16" height="16" style="fill: rgb(0,0,0); stroke: black; stroke-width: 1px;"></rect><rect x="16" y="112" width="16" height="16" style="fill: rgb(0,0,0); stroke: black; stroke-width: 1px;"></rect><rect x="32" y="112" width="16" height="16" style="fill: rgb(0,0,0); stroke: black; stroke-width: 1px;"></rect><rect x="48" y="112" width="16" height="16" style="fill: rgb(0,0,0); stroke: black; stroke-width: 1px;"></rect><rect x="64" y="112" width="16" height="16" style="fill: rgb(0,0,0); stroke: black; stroke-width: 1px;"></rect><rect x="80" y="112" width="16" height="16" style="fill: rgb(0,0,0); stroke: black; stroke-width: 1px;"></rect><rect x="96" y="112" width="16" height="16" style="fill: rgb(0,0,0); stroke: black; stroke-width: 1px;"></rect><rect x="112" y="112" width="16" height="16" style="fill: rgb(0,0,0); stroke: black; stroke-width: 1px;"></rect><rect x="128" y="112" width="16" height="16" style="fill: rgb(0,0,0); stroke: black; stroke-width: 1px;"></rect><rect x="144" y="112" width="16" height="16" style="fill: rgb(0,0,0); stroke: black; stroke-width: 1px;"></rect><rect x="160" y="112" width="16" height="16" style="fill: rgb(0,0,0); stroke: black; stroke-width: 1px;"></rect><rect x="176" y="112" width="16" height="16" style="fill: rgb(0,0,0); stroke: black; stroke-width: 1px;"></rect><rect x="192" y="112" width="16" height="16" style="fill: rgb(0,0,0); stroke: black; stroke-width: 1px;"></rect><rect x="208" y="112" width="16" height="16" style="fill: rgb(0,0,0); stroke: black; stroke-width: 1px;"></rect><rect x="224" y="112" width="16" height="16" style="fill: rgb(0,0,0); stroke: black; stroke-width: 1px;"></rect><rect x="240" y="112" width="16" height="16" style="fill: rgb(0,0,0); stroke: black; stroke-width: 1px;"></rect><rect x="256" y="112" width="16" height="16" style="fill: rgb(0,0,0); stroke: black; stroke-width: 1px;"></rect><rect x="272" y="112" width="16" height="16" style="fill: rgb(0,0,0); stroke: black; stroke-width: 1px;"></rect><rect x="288" y="112" width="16" height="16" style="fill: rgb(0,0,0); stroke: black; stroke-width: 1px;"></rect><rect x="304" y="112" width="16" height="16" style="fill: rgb(0,0,0); stroke: black; stroke-width: 1px;"></rect><rect x="320" y="112" width="16" height="16" style="fill: rgb(0,0,0); stroke: black; stroke-width: 1px;"></rect><rect x="336" y="112" width="16" height="16" style="fill: rgb(0,0,0); stroke: black; stroke-width: 1px;"></rect><rect x="352" y="112" width="16" height="16" style="fill: rgb(0,0,0); stroke: black; stroke-width: 1px;"></rect><rect x="368" y="112" width="16" height="16" style="fill: rgb(0,0,0); stroke: black; stroke-width: 1px;"></rect><rect x="384" y="112" width="16" height="16" style="fill: rgb(0,0,0); stroke: black; stroke-width: 1px;"></rect><rect x="400" y="112" width="16" height="16" style="fill: rgb(0,0,0); stroke: black; stroke-width: 1px;"></rect><rect x="416" y="112" width="16" height="16" style="fill: rgb(0,0,0); stroke: black; stroke-width: 1px;"></rect><rect x="432" y="112" width="16" height="16" style="fill: rgb(0,0,0); stroke: black; stroke-width: 1px;"></rect><rect x="448" y="112" width="16" height="16" style="fill: rgb(0,0,0); stroke: black; stroke-width: 1px;"></rect><rect x="464" y="112" width="16" height="16" style="fill: rgb(0,0,0); stroke: black; stroke-width: 1px;"></rect><rect x="480" y="112" width="16" height="16" style="fill: rgb(0,0,0); stroke: black; stroke-width: 1px;"></rect><rect x="496" y="112" width="16" height="16" style="fill: rgb(0,0,0); stroke: black; stroke-width: 1px;"></rect></svg>